<svg width="26" height="19" viewBox="0 0 26 19" fill="none" xmlns="http://www.w3.org/2000/svg">
<path d="M8.37692 15.8088H8.37811C8.3791 15.8088 8.38009 15.8086 8.38108 15.8086H22.1914C22.5314 15.8086 22.8303 15.583 22.9238 15.2561L25.9706 4.59208C26.0363 4.36218 25.9903 4.11502 25.8465 3.92419C25.7024 3.73337 25.4773 3.62109 25.2383 3.62109H6.62021L6.0757 1.1707C5.99814 0.822174 5.68908 0.574219 5.33203 0.574219H0.761718C0.340988 0.574219 0 0.915207 0 1.33594C0 1.75667 0.340988 2.09766 0.761718 2.09766H4.72107C4.81747 2.53187 7.32678 13.824 7.47119 14.4736C6.66166 14.8255 6.09375 15.6326 6.09375 16.5703C6.09375 17.8303 7.11889 18.8555 8.3789 18.8555H22.1914C22.6121 18.8555 22.9531 18.5145 22.9531 18.0937C22.9531 17.673 22.6121 17.332 22.1914 17.332H8.3789C7.95897 17.332 7.61718 16.9902 7.61718 16.5703C7.61718 16.151 7.95777 15.8098 8.37692 15.8088ZM24.2284 5.14453L21.6167 14.2851H8.98986L6.95861 5.14453H24.2284Z" fill="white"/>
</svg>
