<svg width="55" height="43" viewBox="0 0 55 43" fill="none" xmlns="http://www.w3.org/2000/svg">
<path d="M6.03098 28.8178L4.17576 29.5393C1.39293 30.7246 -0.0500172 31.9614 0.00151667 33.0436C0.156118 34.6411 1.9598 35.8264 5.25797 36.7025C9.53528 37.8362 13.8641 38.0939 18.3476 37.424V32.9405L14.7917 34.2804C11.0813 35.5687 9.17454 34.4865 9.17454 34.4865C8.60767 34.1258 8.35 33.2497 9.89601 32.6829L11.8543 31.9614L18.3476 29.6424V24.4374L16.6985 25.0043L6.03098 28.8178Z" fill="url(#paint0_linear_2_7)"/>
<path d="M33.1378 10.7294V24.0767C35.9206 25.4166 38.3942 25.5196 40.2494 24.1282C42.1562 22.7883 43.1869 20.4693 43.1869 16.965C43.1869 13.3061 42.4654 10.5233 40.8679 8.66807C39.4249 6.70979 36.8482 5.0607 33.0347 3.77236C28.2936 2.22634 24.274 0.886462 21.0789 0.216522V40.1552L29.685 42.7835V9.59568C29.6335 7.58586 33.1378 7.74046 33.1378 10.7294Z" fill="url(#paint1_linear_2_7)"/>
<path d="M54.9881 31.343C54.9366 29.9516 53.2875 28.8694 50.3501 27.8902C47.0519 26.808 44.2175 26.2927 41.1255 26.3957C38.2912 26.4473 34.8899 27.3749 31.8494 28.354V33.4559L40.1979 30.5184C40.1979 30.5184 42.7231 29.5908 44.8875 30.1577C46.5366 30.57 46.4335 31.4976 44.7844 32.0644L42.8777 32.8375L31.8494 36.8056V42.0105L37.0028 40.1553L49.3709 35.7749L50.8139 35.1049C53.8028 34.0227 55.1427 32.8375 54.9881 31.343Z" fill="url(#paint2_linear_2_7)"/>
<defs>
<linearGradient id="paint0_linear_2_7" x1="8.05264" y1="20.8666" x2="21.9389" y2="32.8704" gradientUnits="userSpaceOnUse">
<stop offset="0.0179064" stop-color="#D31027"/>
<stop offset="1" stop-color="#EA384D"/>
</linearGradient>
<linearGradient id="paint1_linear_2_7" x1="30.7818" y1="-11.1677" x2="57.1978" y2="-2.53697" gradientUnits="userSpaceOnUse">
<stop offset="0.0179064" stop-color="#D31027"/>
<stop offset="1" stop-color="#EA384D"/>
</linearGradient>
<linearGradient id="paint2_linear_2_7" x1="42.01" y1="22.2033" x2="58.3951" y2="37.4726" gradientUnits="userSpaceOnUse">
<stop offset="0.0179064" stop-color="#D31027"/>
<stop offset="1" stop-color="#EA384D"/>
</linearGradient>
</defs>
</svg>
