<svg width="197" height="63" viewBox="0 0 197 63" fill="none" xmlns="http://www.w3.org/2000/svg">
<mask id="path-1-outside-1_7_2" maskUnits="userSpaceOnUse" x="-2" y="-2" width="201" height="66" fill="black">
<rect fill="white" x="-2" y="-2" width="201" height="66"/>
<path d="M0.0860051 5.58581L7.49242 0.709921V43.914H24.5889V47H7.49242L0.0860051 51.8759V5.58581ZM61.9932 47H28.294V18.4853L35.7622 24.5339L52.118 18.9791V34.4708L35.7622 40.828V44.2226H61.9932V47ZM44.7116 34.5943V24.2253L35.7622 27.1261V38.0506L44.7116 34.5943ZM96.7672 47H85.7193V62.43H62.2039V59.6526H78.3129V42.4327L68.129 47H60.6609V18.4853L68.129 24.5339L85.7193 18.3619V44.2226H96.7672V47ZM78.3129 39.717V23.6081L68.129 27.1261V44.2226L78.3129 39.717ZM112.548 42.4327L102.364 47H94.8963V18.4853L102.364 24.5339L119.955 18.3619V44.2226H131.064V47H112.548V42.4327ZM112.548 39.717V23.6081L102.364 27.1261V44.2226L112.548 39.717ZM145.609 24.2253L136.66 27.1261V44.2226H164.125V47H129.192V18.4853L136.66 24.5339L153.016 18.9791V26.941L145.609 29.4098V24.2253ZM196.705 47H185.657V62.43H160.414V59.6526H178.251V42.4327L168.067 47H160.599V18.4236L168.067 24.5339V44.2226L178.251 39.717V24.5339L185.657 18.4236V44.2226H196.705V47Z"/>
</mask>
<path d="M0.0860051 5.58581L7.49242 0.709921V43.914H24.5889V47H7.49242L0.0860051 51.8759V5.58581ZM61.9932 47H28.294V18.4853L35.7622 24.5339L52.118 18.9791V34.4708L35.7622 40.828V44.2226H61.9932V47ZM44.7116 34.5943V24.2253L35.7622 27.1261V38.0506L44.7116 34.5943ZM96.7672 47H85.7193V62.43H62.2039V59.6526H78.3129V42.4327L68.129 47H60.6609V18.4853L68.129 24.5339L85.7193 18.3619V44.2226H96.7672V47ZM78.3129 39.717V23.6081L68.129 27.1261V44.2226L78.3129 39.717ZM112.548 42.4327L102.364 47H94.8963V18.4853L102.364 24.5339L119.955 18.3619V44.2226H131.064V47H112.548V42.4327ZM112.548 39.717V23.6081L102.364 27.1261V44.2226L112.548 39.717ZM145.609 24.2253L136.66 27.1261V44.2226H164.125V47H129.192V18.4853L136.66 24.5339L153.016 18.9791V26.941L145.609 29.4098V24.2253ZM196.705 47H185.657V62.43H160.414V59.6526H178.251V42.4327L168.067 47H160.599V18.4236L168.067 24.5339V44.2226L178.251 39.717V24.5339L185.657 18.4236V44.2226H196.705V47Z" fill="url(#paint0_linear_7_2)"/>
<path d="M0.086005 5.58581L-0.710384 4.37611L-1.36231 4.80529V5.58581H0.086005ZM7.49242 0.709921H8.94073V-1.97755L6.69603 -0.499783L7.49242 0.709921ZM7.49242 43.914H6.0441V45.3623H7.49242V43.914ZM24.5889 43.914H26.0372V42.4657H24.5889V43.914ZM24.5889 47V48.4483H26.0372V47H24.5889ZM7.49242 47V45.5517H7.05848L6.69603 45.7903L7.49242 47ZM0.086005 51.8759H-1.36231V54.5634L0.882394 53.0856L0.086005 51.8759ZM0.882394 6.79552L8.28881 1.91963L6.69603 -0.499783L-0.710384 4.37611L0.882394 6.79552ZM6.0441 0.709921V43.914H8.94073V0.709921H6.0441ZM7.49242 45.3623H24.5889V42.4657H7.49242V45.3623ZM23.1406 43.914V47H26.0372V43.914H23.1406ZM24.5889 45.5517H7.49242V48.4483H24.5889V45.5517ZM6.69603 45.7903L-0.710384 50.6662L0.882394 53.0856L8.28881 48.2097L6.69603 45.7903ZM1.53432 51.8759V5.58581H-1.36231V51.8759H1.53432ZM61.9932 47V48.4483H63.4415V47H61.9932ZM28.294 47H26.8457V48.4483H28.294V47ZM28.294 18.4853L29.2056 17.3598L26.8457 15.4485V18.4853H28.294ZM35.7622 24.5339L34.8506 25.6594L35.4714 26.1622L36.2279 25.9053L35.7622 24.5339ZM52.118 18.9791H53.5663V16.9576L51.6522 17.6077L52.118 18.9791ZM52.118 34.4708L52.6427 35.8208L53.5663 35.4618V34.4708H52.118ZM35.7622 40.828L35.2375 39.4781L34.3138 39.8371V40.828H35.7622ZM35.7622 44.2226H34.3138V45.6709H35.7622V44.2226ZM61.9932 44.2226H63.4415V42.7743H61.9932V44.2226ZM44.7116 34.5943L45.2334 35.9453L46.1599 35.5875V34.5943H44.7116ZM44.7116 24.2253H46.1599V22.2333L44.265 22.8475L44.7116 24.2253ZM35.7622 27.1261L35.3156 25.7484L34.3138 26.0731V27.1261H35.7622ZM35.7622 38.0506H34.3138V40.1625L36.2839 39.4016L35.7622 38.0506ZM61.9932 45.5517H28.294V48.4483H61.9932V45.5517ZM29.7423 47V18.4853H26.8457V47H29.7423ZM27.3825 19.6108L34.8506 25.6594L36.6737 23.4084L29.2056 17.3598L27.3825 19.6108ZM36.2279 25.9053L52.5837 20.3505L51.6522 17.6077L35.2964 23.1625L36.2279 25.9053ZM50.6697 18.9791V34.4708H53.5663V18.9791H50.6697ZM51.5933 33.1209L35.2375 39.4781L36.2868 42.1779L52.6427 35.8208L51.5933 33.1209ZM34.3138 40.828V44.2226H37.2105V40.828H34.3138ZM35.7622 45.6709H61.9932V42.7743H35.7622V45.6709ZM60.5449 44.2226V47H63.4415V44.2226H60.5449ZM46.1599 34.5943V24.2253H43.2633V34.5943H46.1599ZM44.265 22.8475L35.3156 25.7484L36.2087 28.5039L45.1581 25.603L44.265 22.8475ZM34.3138 27.1261V38.0506H37.2105V27.1261H34.3138ZM36.2839 39.4016L45.2334 35.9453L44.1898 33.2432L35.2404 36.6995L36.2839 39.4016ZM96.7672 47V48.4483H98.2155V47H96.7672ZM85.7193 47V45.5517H84.271V47H85.7193ZM85.7193 62.43V63.8783H87.1676V62.43H85.7193ZM62.2039 62.43H60.7556V63.8783H62.2039V62.43ZM62.2039 59.6526V58.2043H60.7556V59.6526H62.2039ZM78.3129 59.6526V61.1009H79.7612V59.6526H78.3129ZM78.3129 42.4327H79.7612V40.1959L77.7202 41.1112L78.3129 42.4327ZM68.129 47V48.4483H68.4389L68.7217 48.3215L68.129 47ZM60.6609 47H59.2126V48.4483H60.6609V47ZM60.6609 18.4853L61.5725 17.3598L59.2126 15.4485V18.4853H60.6609ZM68.129 24.5339L67.2175 25.6594L67.8457 26.1682L68.6086 25.9005L68.129 24.5339ZM85.7193 18.3619H87.1676V16.3188L85.2398 16.9952L85.7193 18.3619ZM85.7193 44.2226H84.271V45.6709H85.7193V44.2226ZM96.7672 44.2226H98.2155V42.7743H96.7672V44.2226ZM78.3129 39.717L78.8988 41.0415L79.7612 40.66V39.717H78.3129ZM78.3129 23.6081H79.7612V21.5755L77.84 22.2391L78.3129 23.6081ZM68.129 27.1261L67.6561 25.7572L66.6807 26.0942V27.1261H68.129ZM68.129 44.2226H66.6807V46.4471L68.715 45.5471L68.129 44.2226ZM96.7672 45.5517H85.7193V48.4483H96.7672V45.5517ZM84.271 47V62.43H87.1676V47H84.271ZM85.7193 60.9817H62.2039V63.8783H85.7193V60.9817ZM63.6522 62.43V59.6526H60.7556V62.43H63.6522ZM62.2039 61.1009H78.3129V58.2043H62.2039V61.1009ZM79.7612 59.6526V42.4327H76.8645V59.6526H79.7612ZM77.7202 41.1112L67.5364 45.6785L68.7217 48.3215L78.9055 43.7542L77.7202 41.1112ZM68.129 45.5517H60.6609V48.4483H68.129V45.5517ZM62.1092 47V18.4853H59.2126V47H62.1092ZM59.7494 19.6108L67.2175 25.6594L69.0406 23.4084L61.5725 17.3598L59.7494 19.6108ZM68.6086 25.9005L86.1988 19.7285L85.2398 16.9952L67.6495 23.1673L68.6086 25.9005ZM84.271 18.3619V44.2226H87.1676V18.3619H84.271ZM85.7193 45.6709H96.7672V42.7743H85.7193V45.6709ZM95.3189 44.2226V47H98.2155V44.2226H95.3189ZM79.7612 39.717V23.6081H76.8645V39.717H79.7612ZM77.84 22.2391L67.6561 25.7572L68.6019 28.4951L78.7858 24.977L77.84 22.2391ZM66.6807 27.1261V44.2226H69.5774V27.1261H66.6807ZM68.715 45.5471L78.8988 41.0415L77.7269 38.3925L67.5431 42.8981L68.715 45.5471ZM112.548 42.4327H113.997V40.1959L111.956 41.1112L112.548 42.4327ZM102.364 47V48.4483H102.674L102.957 48.3215L102.364 47ZM94.8963 47H93.448V48.4483H94.8963V47ZM94.8963 18.4853L95.8078 17.3598L93.448 15.4485V18.4853H94.8963ZM102.364 24.5339L101.453 25.6594L102.081 26.1682L102.844 25.9005L102.364 24.5339ZM119.955 18.3619H121.403V16.3188L119.475 16.9952L119.955 18.3619ZM119.955 44.2226H118.506V45.6709H119.955V44.2226ZM131.064 44.2226H132.513V42.7743H131.064V44.2226ZM131.064 47V48.4483H132.513V47H131.064ZM112.548 47H111.1V48.4483H112.548V47ZM112.548 39.717L113.134 41.0415L113.997 40.66V39.717H112.548ZM112.548 23.6081H113.997V21.5755L112.075 22.2391L112.548 23.6081ZM102.364 27.1261L101.892 25.7572L100.916 26.0942V27.1261H102.364ZM102.364 44.2226H100.916V46.4471L102.95 45.5471L102.364 44.2226ZM111.956 41.1112L101.772 45.6785L102.957 48.3215L113.141 43.7542L111.956 41.1112ZM102.364 45.5517H94.8963V48.4483H102.364V45.5517ZM96.3446 47V18.4853H93.448V47H96.3446ZM93.9847 19.6108L101.453 25.6594L103.276 23.4084L95.8078 17.3598L93.9847 19.6108ZM102.844 25.9005L120.434 19.7285L119.475 16.9952L101.885 23.1673L102.844 25.9005ZM118.506 18.3619V44.2226H121.403V18.3619H118.506ZM119.955 45.6709H131.064V42.7743H119.955V45.6709ZM129.616 44.2226V47H132.513V44.2226H129.616ZM131.064 45.5517H112.548V48.4483H131.064V45.5517ZM113.997 47V42.4327H111.1V47H113.997ZM113.997 39.717V23.6081H111.1V39.717H113.997ZM112.075 22.2391L101.892 25.7572L102.837 28.4951L113.021 24.977L112.075 22.2391ZM100.916 27.1261V44.2226H103.813V27.1261H100.916ZM102.95 45.5471L113.134 41.0415L111.962 38.3925L101.778 42.8981L102.95 45.5471ZM145.609 24.2253H147.058V22.2333L145.163 22.8475L145.609 24.2253ZM136.66 27.1261L136.213 25.7484L135.212 26.0731V27.1261H136.66ZM136.66 44.2226H135.212V45.6709H136.66V44.2226ZM164.126 44.2226H165.574V42.7743H164.126V44.2226ZM164.126 47V48.4483H165.574V47H164.126ZM129.192 47H127.744V48.4483H129.192V47ZM129.192 18.4853L130.103 17.3598L127.744 15.4485V18.4853H129.192ZM136.66 24.5339L135.749 25.6594L136.369 26.1622L137.126 25.9053L136.66 24.5339ZM153.016 18.9791H154.464V16.9576L152.55 17.6077L153.016 18.9791ZM153.016 26.941L153.474 28.315L154.464 27.9849V26.941H153.016ZM145.609 29.4098H144.161V31.4192L146.067 30.7838L145.609 29.4098ZM145.163 22.8475L136.213 25.7484L137.107 28.5039L146.056 25.603L145.163 22.8475ZM135.212 27.1261V44.2226H138.108V27.1261H135.212ZM136.66 45.6709H164.126V42.7743H136.66V45.6709ZM162.677 44.2226V47H165.574V44.2226H162.677ZM164.126 45.5517H129.192V48.4483H164.126V45.5517ZM130.64 47V18.4853H127.744V47H130.64ZM128.28 19.6108L135.749 25.6594L137.572 23.4084L130.103 17.3598L128.28 19.6108ZM137.126 25.9053L153.482 20.3505L152.55 17.6077L136.194 23.1625L137.126 25.9053ZM151.568 18.9791V26.941H154.464V18.9791H151.568ZM152.558 25.567L145.151 28.0358L146.067 30.7838L153.474 28.315L152.558 25.567ZM147.058 29.4098V24.2253H144.161V29.4098H147.058ZM196.705 47V48.4483H198.153V47H196.705ZM185.657 47V45.5517H184.209V47H185.657ZM185.657 62.43V63.8783H187.105V62.43H185.657ZM160.414 62.43H158.965V63.8783H160.414V62.43ZM160.414 59.6526V58.2043H158.965V59.6526H160.414ZM178.251 59.6526V61.1009H179.699V59.6526H178.251ZM178.251 42.4327H179.699V40.1959L177.658 41.1112L178.251 42.4327ZM168.067 47V48.4483H168.377L168.66 48.3215L168.067 47ZM160.599 47H159.15V48.4483H160.599V47ZM160.599 18.4236L161.516 17.3027L159.15 15.3673V18.4236H160.599ZM168.067 24.5339H169.515V23.8476L168.984 23.4129L168.067 24.5339ZM168.067 44.2226H166.619V46.4471L168.653 45.5471L168.067 44.2226ZM178.251 39.717L178.837 41.0415L179.699 40.66V39.717H178.251ZM178.251 24.5339L177.329 23.4167L176.802 23.8512V24.5339H178.251ZM185.657 18.4236H187.105V15.3512L184.735 17.3064L185.657 18.4236ZM185.657 44.2226H184.209V45.6709H185.657V44.2226ZM196.705 44.2226H198.153V42.7743H196.705V44.2226ZM196.705 45.5517H185.657V48.4483H196.705V45.5517ZM184.209 47V62.43H187.105V47H184.209ZM185.657 60.9817H160.414V63.8783H185.657V60.9817ZM161.862 62.43V59.6526H158.965V62.43H161.862ZM160.414 61.1009H178.251V58.2043H160.414V61.1009ZM179.699 59.6526V42.4327H176.802V59.6526H179.699ZM177.658 41.1112L167.474 45.6785L168.66 48.3215L178.843 43.7542L177.658 41.1112ZM168.067 45.5517H160.599V48.4483H168.067V45.5517ZM162.047 47V18.4236H159.15V47H162.047ZM159.682 19.5445L167.15 25.6548L168.984 23.4129L161.516 17.3027L159.682 19.5445ZM166.619 24.5339V44.2226H169.515V24.5339H166.619ZM168.653 45.5471L178.837 41.0415L177.665 38.3925L167.481 42.8981L168.653 45.5471ZM179.699 39.717V24.5339H176.802V39.717H179.699ZM179.172 25.6511L186.579 19.5408L184.735 17.3064L177.329 23.4167L179.172 25.6511ZM184.209 18.4236V44.2226H187.105V18.4236H184.209ZM185.657 45.6709H196.705V42.7743H185.657V45.6709ZM195.257 44.2226V47H198.153V44.2226H195.257Z" fill="#FFA800" mask="url(#path-1-outside-1_7_2)"/>
<defs>
<linearGradient id="paint0_linear_7_2" x1="82.5833" y1="-20.186" x2="143.197" y2="89.1596" gradientUnits="userSpaceOnUse">
<stop offset="0.0179064" stop-color="#F46B45"/>
<stop offset="1" stop-color="#EEA849"/>
</linearGradient>
</defs>
</svg>
